/* XPM */
static char * dldstart1_xpm[] = {
/* width height num_colors chars_per_pixel */
"27 15 48 1",
/* colors */
" 	c None",
".	c #ff9c00",
"X	c #ffbd00",
"o	c #ffde00",
"O	c #8c8cde",
"+	c #f7adad",
"@	c #efa5a5",
"#	c #de8c84",
"$	c #ef4a4a",
"%	c #ef2121",
"&	c #f7ad21",
"*	c #adadff",
"=	c #e7d6ff",
"-	c #4242a5",
";	c #00007b",
":	c #ffbdbd",
">	c #ce2121",
",	c #a51808",
"<	c #941010",
"1	c #bd1018",
"2	c #6b6bb5",
"3	c #ffd6ce",
"4	c #f78484",
"5	c #f76b6b",
"6	c #e70000",
"7	c #9429b5",
"8	c #9429bd",
"9	c #e7949c",
"0	c #de8c39",
"q	c #3939c6",
"w	c #39008c",
"e	c #ef3931",
"r	c #4a00a5",
"t	c #bd3184",
"y	c #ad63e7",
"u	c #c68cef",
"i	c #6b31ad",
"p	c #ad63d6",
"a	c #42088c",
"s	c #7b21b5",
"d	c #100029",
"f	c #21005a",
"g	c #9c42de",
"h	c #8429bd",
"j	c #6318ce",
"k	c black",
"l	c #310063",
"z	c #5a5a5a",
/* pixels */
"          ..Xooooo         ",
"          ..X...XX         ",
"          ooooXX.   O      ",
"     +@@#$%ooXXX&*O=-;     ",
"    ::>,<<1.ooX#O===--2    ",
"    %+3:45%6XX&O=****--2   ",
"  7854945$%60XqqO*****w;   ",
"=*888e$e>666rXtqqO****;;   ",
"y*u77866661rr8iwqqOqqqq;   ",
" u==p77887887788qqqqqarss8 ",
"  uu==u7887788777qwi877877d",
"    uu====u878877887878777f",
"       uuu==****pg8888hrrww",
"           yyyypyy*yygjjkk ",
"                 piallz    "};
