/* XPM */
static char * dld52_xpm[] = {
"26 131 21 1",
" 	c blue",
".	c #28A228A2FFFF",
"X	c #38E338E3FFFF",
"o	c #59655965FFFF",
"O	c #D75CD75CFFFF",
"+	c white",
"@	c #DF7DDF7DFFFF",
"#	c #79E779E7FFFF",
"$	c #18611861FFFF",
"%	c #AEBAAEBAFFFF",
"&	c #B6DAB6DAFFFF",
"*	c #9E799E79FFFF",
"=	c #CF3CCF3CFFFF",
"-	c #EFBEEFBEFFFF",
";	c #96589658FFFF",
":	c #49244924FFFF",
">	c #71C671C6FFFF",
",	c #BEFBBEFBFFFF",
"<	c #8E388E38FFFF",
"1	c #30C230C2FFFF",
"2	c #51445144FFFF",
"                          ",
"                          ",
"                          ",
"                          ",
"                          ",
"                          ",
"                          ",
"                          ",
"                          ",
"                          ",
"                          ",
"                          ",
"                          ",
"                          ",
"                          ",
"                          ",
"                          ",
"                          ",
"                          ",
"                          ",
"                          ",
"                          ",
"                          ",
"                          ",
"                          ",
"                          ",
"                          ",
"                          ",
"                          ",
"                          ",
"                          ",
"                          ",
"                          ",
"                          ",
"                          ",
"                          ",
"                          ",
"                          ",
"                          ",
"                          ",
"                          ",
"                          ",
"                          ",
"                          ",
"                          ",
"                          ",
"                          ",
"                          ",
"                          ",
"                          ",
"                          ",
"                          ",
"                          ",
"                  .       ",
"                          ",
"                          ",
"                          ",
"                          ",
"                          ",
"                          ",
"                          ",
"                          ",
"                          ",
"                          ",
"                          ",
"                          ",
"                          ",
"                          ",
"                          ",
"                          ",
"                          ",
"                          ",
"                          ",
"                          ",
"                          ",
"                          ",
"                          ",
"                          ",
"                          ",
"                          ",
"                          ",
"                          ",
"                          ",
"                          ",
"                          ",
"                          ",
"                          ",
"                          ",
"                          ",
"           XXX.           ",
"        oO+++++@#$        ",
"       %+++++++++O$       ",
"      #+++&###*@++=       ",
"      -+O$      ;++.      ",
"     .++:        -+>      ",
"     X++         ,+#      ",
"     X++         ,+#      ",
"     X++         ,+#      ",
"     X++#########@+#      ",
"     X+++++++++++++#      ",
"     X+++++++++++++#      ",
"     $XXXXXXXXXXXXX.      ",
"                          ",
"                 ;,o      ",
"                 ,+#      ",
"                 ,+#      ",
"                 ,+#      ",
"                 ,+#      ",
"                 ,+#      ",
"                 ,+#      ",
"     X+++++++++++++#      ",
"     X+++++++++++++#      ",
"     .,,,,,,,,,,,,,o      ",
"                          ",
"                          ",
"        $<,+++@*1         ",
"       2+++++++++%        ",
"      :+++-,,,@+++;       ",
"      @+-o     $,++.      ",
"     .++o       $++o      ",
"     X++$        ,+#      ",
"     X++         ,+#      ",
"     X++         =+#      ",
"     X++XXXXXXXXXO+#      ",
"     X+++++++++++++#      ",
"     X+++++++++++++#      ",
"     $#############X      ",
"                          ",
"                          ",
"                          ",
"                          "};
