/* XPM */
static char * weiter_xpm[] = {
"22 22 5 1",
" 	c None",
".	c #000000",
"+	c #FFFFFF",
"@	c #C0C0C0",
"#	c #808080",
"                      ",
"                      ",
"                      ",
"                      ",
"                      ",
"           .          ",
"           ..         ",
"           .+.        ",
"    ........++.       ",
"    .+++++++@++.      ",
"    .@@@@@@@@@++.     ",
"    .@@@@@@@@@+.      ",
"    ........@+.#      ",
"    #######.+.#       ",
"          #..#        ",
"          #.#         ",
"          ##          ",
"          #           ",
"                      ",
"                      ",
"                      ",
"                      "};
